<svg width="41" height="45" viewBox="0 0 41 45" fill="none" xmlns="http://www.w3.org/2000/svg">
<path d="M23.7504 0.212419C19.9572 -0.35281 16.0926 0.215171 12.5789 1.85431C9.07617 3.50967 6.05846 6.16103 3.84993 9.52363C1.6414 12.8862 0.325494 16.833 0.0435525 20.94C-0.202368 25.0502 0.596537 29.1548 2.35444 32.8129C4.11235 36.4711 6.76282 39.5445 10.0211 41.703C13.291 43.8462 17.045 44.9811 20.8732 44.9836C22.7675 44.989 24.6532 44.7089 26.4753 44.1514C27.4298 43.8425 28.2538 43.1838 28.8044 42.2894C29.355 41.395 29.5975 40.3213 29.4898 39.2546C29.4292 38.3272 29.1168 37.4393 28.5915 36.7013C28.0662 35.9633 27.3511 35.4076 26.535 35.1033C25.5222 34.745 24.6614 34.0093 24.1075 33.0286C23.5536 32.0479 23.343 30.8866 23.5136 29.7537C23.6841 28.6207 24.2246 27.5905 25.0378 26.8483C25.8511 26.1061 26.8836 25.7007 27.9497 25.7051H33.531C35.9276 25.7115 38.2526 24.4198 39.6375 22.312C40.323 21.2576 40.7657 20.0429 40.9292 18.768C41.0927 17.4931 40.9722 16.1946 40.5776 14.9798C39.299 11.0947 37.0532 7.66263 34.0856 5.05834C31.1181 2.45406 27.5428 0.777721 23.7504 0.212419Z" fill="url(#paint0_linear_11_1027)"/>
<path d="M8.54971 17.6723C8.54971 18.9505 9.02139 20.1764 9.86098 21.0803C10.7006 21.9841 11.8393 22.4919 13.0266 22.4919C14.214 22.4919 15.3527 21.9841 16.1923 21.0803C17.0319 20.1764 17.5036 18.9505 17.5036 17.6723C17.5036 16.394 17.0319 15.1682 16.1923 14.2643C15.3527 13.3604 14.214 12.8527 13.0266 12.8527C11.8393 12.8527 10.7006 13.3604 9.86098 14.2643C9.02139 15.1682 8.54971 16.394 8.54971 17.6723Z" fill="#2859C5"/>
<path d="M21.9804 12.8526C21.9804 14.1308 22.4521 15.3567 23.2917 16.2606C24.1313 17.1644 25.27 17.6722 26.4574 17.6722C27.6447 17.6722 28.7834 17.1644 29.623 16.2606C30.4626 15.3567 30.9343 14.1308 30.9343 12.8526C30.9343 11.5743 30.4626 10.3485 29.623 9.4446C28.7834 8.54074 27.6447 8.03296 26.4574 8.03296C25.27 8.03296 24.1313 8.54074 23.2917 9.4446C22.4521 10.3485 21.9804 11.5743 21.9804 12.8526Z" fill="#2859C5"/>
<path d="M10.0421 30.5246C10.0421 30.9466 10.1193 31.3644 10.2692 31.7542C10.4192 32.144 10.6391 32.4982 10.9162 32.7966C11.1934 33.095 11.5224 33.3316 11.8845 33.4931C12.2466 33.6546 12.6347 33.7377 13.0267 33.7377C13.4186 33.7377 13.8067 33.6546 14.1688 33.4931C14.5309 33.3316 14.86 33.095 15.1371 32.7966C15.4143 32.4982 15.6341 32.144 15.7841 31.7542C15.9341 31.3644 16.0113 30.9466 16.0113 30.5246C16.0113 30.1027 15.9341 29.6848 15.7841 29.295C15.6341 28.9052 15.4143 28.551 15.1371 28.2526C14.86 27.9543 14.5309 27.7176 14.1688 27.5561C13.8067 27.3946 13.4186 27.3115 13.0267 27.3115C12.6347 27.3115 12.2466 27.3946 11.8845 27.5561C11.5224 27.7176 11.1934 27.9543 10.9162 28.2526C10.6391 28.551 10.4192 28.9052 10.2692 29.295C10.1193 29.6848 10.0421 30.1027 10.0421 30.5246Z" fill="#2859C5"/>
<defs>
<linearGradient id="paint0_linear_11_1027" x1="20.5" y1="0" x2="20.5" y2="44.9837" gradientUnits="userSpaceOnUse">
<stop stop-color="#D4ACFA"/>
<stop offset="1" stop-color="#9FC3FF"/>
</linearGradient>
</defs>
</svg>
