<svg width="41" height="43" viewBox="0 0 41 43" fill="none" xmlns="http://www.w3.org/2000/svg">
<path fill-rule="evenodd" clip-rule="evenodd" d="M16.5026 31.7703C16.6039 31.4645 16.7905 31.1998 17.0369 31.0125C17.2833 30.8251 17.5774 30.7242 17.879 30.7236H23.1212C23.4228 30.7242 23.7169 30.8251 23.9633 31.0125C24.2096 31.1998 24.3962 31.4645 24.4976 31.7703L26.5095 37.8173H29.2858C29.8683 37.8173 30.427 38.0664 30.8389 38.5099C31.2508 38.9533 31.4822 39.5548 31.4822 40.1819C31.4822 40.809 31.2508 41.4104 30.8389 41.8539C30.427 42.2973 29.8683 42.5464 29.2858 42.5464H11.7144C11.1318 42.5464 10.5732 42.2973 10.1613 41.8539C9.74935 41.4104 9.51794 40.809 9.51794 40.1819C9.51794 39.5548 9.74935 38.9533 10.1613 38.5099C10.5732 38.0664 11.1318 37.8173 11.7144 37.8173H14.4907L16.4997 31.7703H16.5026Z" fill="#2859C5"/>
<path fill-rule="evenodd" clip-rule="evenodd" d="M4.26693 0C1.90943 0 0 2.05559 0 4.59356V28.5103C0 31.0483 1.90943 33.1039 4.26693 33.1039H36.7331C39.0906 33.1039 41 31.0483 41 28.5103V4.59356C41 2.05559 39.0906 0 36.7331 0H4.26693Z" fill="url(#paint0_linear_11_1016)"/>
<path fill-rule="evenodd" clip-rule="evenodd" d="M16.195 13.0935C16.583 12.6452 16.7942 12.0524 16.7842 11.4398C16.7742 10.8272 16.5436 10.2427 16.1412 9.80951C15.7388 9.37628 15.1959 9.12812 14.6269 9.11731C14.0578 9.1065 13.5071 9.33389 13.0908 9.75157L8.6979 14.4807C8.28658 14.924 8.05554 15.525 8.05554 16.1516C8.05554 16.7783 8.28658 17.3793 8.6979 17.8226L13.0908 22.5517C13.5071 22.9694 14.0578 23.1968 14.6269 23.186C15.1959 23.1752 15.7388 22.927 16.1412 22.4938C16.5436 22.0606 16.7742 21.4761 16.7842 20.8635C16.7942 20.2509 16.583 19.6581 16.195 19.2098L13.3543 16.1516L16.195 13.0935ZM27.9093 9.75157C27.493 9.33389 26.9422 9.1065 26.3732 9.11731C25.8042 9.12812 25.2613 9.37628 24.8589 9.80951C24.4564 10.2427 24.2259 10.8272 24.2159 11.4398C24.2058 12.0524 24.4171 12.6452 24.805 13.0935L27.6458 16.1516L24.805 19.2098C24.4171 19.6581 24.2058 20.2509 24.2159 20.8635C24.2259 21.4761 24.4564 22.0606 24.8589 22.4938C25.2613 22.927 25.8042 23.1752 26.3732 23.186C26.9422 23.1968 27.493 22.9694 27.9093 22.5517L32.3022 17.8226C32.7135 17.3793 32.9445 16.7783 32.9445 16.1516C32.9445 15.525 32.7135 14.924 32.3022 14.4807L27.9093 9.75157Z" fill="#2859C5"/>
<defs>
<linearGradient id="paint0_linear_11_1016" x1="20.5" y1="0" x2="20.5" y2="33.1039" gradientUnits="userSpaceOnUse">
<stop stop-color="#D4ACFA"/>
<stop offset="1" stop-color="#9FC3FF"/>
</linearGradient>
</defs>
</svg>
