<svg width="136" height="91" viewBox="0 0 136 91" fill="none" xmlns="http://www.w3.org/2000/svg">
<g clip-path="url(#clip0_133_25)">
<path d="M3.05176e-05 -0.000976562H136V90.6667H3.05176e-05V-0.000976562Z" fill="white"/>
<path d="M76.5 -0.00195312H59.5V36.8312H3.05176e-05V53.8312H59.5V90.6644H76.5V53.8312H136V36.8312H76.5V-0.00195312Z" fill="#D80027"/>
<path d="M104.599 61.0996L136 78.5448V61.0996H104.599ZM82.7826 61.0996L136 90.6647V82.3045L97.8316 61.0996H82.7826ZM121.825 90.6647L82.7826 68.9727V90.6647H121.825Z" fill="#0052B4"/>
<path d="M82.7826 61.0996L136 90.6647V82.3044L97.8316 61.0996H82.7826Z" fill="white"/>
<path d="M82.7826 61.0996L136 90.6647V82.3044L97.8316 61.0996H82.7826Z" fill="#D80027"/>
<path d="M23.9969 61.0986L3.05176e-05 74.4304V61.0986H23.9969ZM53.2175 64.8583V90.664H6.77108L53.2175 64.8583Z" fill="#0052B4"/>
<path d="M38.1685 61.0996L3.05176e-05 82.3044V90.6647L53.2175 61.0996H38.1685Z" fill="#D80027"/>
<path d="M31.4009 29.5632L3.05176e-05 12.118V29.5632H31.4009ZM53.2175 29.5632L3.05176e-05 -0.00195312V8.35833L38.1685 29.5632H53.2175ZM14.1754 -0.00195312L53.2175 21.69V-0.00195312H14.1754Z" fill="#0052B4"/>
<path d="M53.2175 29.5632L3.05176e-05 -0.00195312V8.35833L38.1685 29.5632H53.2175Z" fill="white"/>
<path d="M53.2175 29.5632L3.05176e-05 -0.00195312V8.35833L38.1685 29.5632H53.2175Z" fill="#D80027"/>
<path d="M112.003 29.5644L136 16.2327V29.5644H112.003ZM82.7826 25.8048V-0.000976562H129.229L82.7826 25.8048Z" fill="#0052B4"/>
<path d="M97.8316 29.5632L136 8.35833V-0.00195312L82.7826 29.5632H97.8316Z" fill="#D80027"/>
</g>
<defs>
<clipPath id="clip0_133_25">
<rect x="3.05176e-05" y="-0.000976562" width="136" height="90.6666" rx="3" fill="white"/>
</clipPath>
</defs>
</svg>
