<svg width="13" height="12" viewBox="0 0 13 12" fill="none" xmlns="http://www.w3.org/2000/svg">
<path fill-rule="evenodd" clip-rule="evenodd" d="M12.6631 0.212558C12.7571 0.290146 12.8348 0.385477 12.8919 0.493108C12.949 0.600738 12.9843 0.71856 12.9958 0.839842C13.0074 0.961125 12.9949 1.08349 12.9592 1.19996C12.9234 1.31643 12.8651 1.42471 12.7874 1.51862L5.32953 10.5442L5.32675 10.546C5.15713 10.7498 4.94425 10.9132 4.70357 11.0244C4.46289 11.1356 4.20045 11.1918 3.93535 11.1889C3.66595 11.1854 3.40083 11.1211 3.15986 11.0006C2.91888 10.8801 2.70832 10.7066 2.54394 10.4932L0.208244 7.49144C0.130254 7.39565 0.0721841 7.28524 0.0374418 7.16669C0.00269959 7.04815 -0.00801503 6.92386 0.00592673 6.80112C0.0198685 6.67838 0.0581858 6.55966 0.11863 6.45192C0.179074 6.34419 0.260428 6.24962 0.357916 6.17375C0.455405 6.09789 0.567065 6.04226 0.686344 6.01013C0.805623 5.978 0.930117 5.97002 1.05252 5.98666C1.17493 6.00329 1.29278 6.04421 1.39915 6.10701C1.50553 6.1698 1.59829 6.25322 1.672 6.35235L3.95761 9.29006L11.3562 0.336856C11.4337 0.242927 11.5291 0.165201 11.6367 0.108119C11.7443 0.0510362 11.8622 0.0157151 11.9834 0.00417257C12.1047 -0.00736996 12.2271 0.0050922 12.3436 0.0408473C12.46 0.0766024 12.5692 0.13495 12.6631 0.212558Z" fill="url(#paint0_linear_11_987)"/>
<defs>
<linearGradient id="paint0_linear_11_987" x1="6.5" y1="0" x2="6.5" y2="11.189" gradientUnits="userSpaceOnUse">
<stop stop-color="#D4ACFA"/>
<stop offset="0.33" stop-color="#9EBBFA"/>
<stop offset="1" stop-color="#8FBFFA"/>
</linearGradient>
</defs>
</svg>
